<?xml version="1.0" encoding="UTF-8" standalone="no"?>
<svg width="927px" height="600px" viewBox="0 0 927 600" version="1.1" xmlns="http://www.w3.org/2000/svg" xmlns:xlink="http://www.w3.org/1999/xlink" xmlns:sketch="http://www.bohemiancoding.com/sketch/ns">
    <!-- Generator: Sketch Beta 3.0.2 (7777) - http://www.bohemiancoding.com/sketch -->
    <title>Soccer_Field_Football_Pitch_clip_art</title>
    <description>Created with Sketch Beta.</description>
    <defs></defs>
    <g id="Welcome" stroke="none" stroke-width="1" fill="none" fill-rule="evenodd" sketch:type="MSPage">
        <g id="Desktop-HD" sketch:type="MSArtboardGroup" transform="translate(-276.000000, -132.000000)">
            <g id="Soccer_Field_Football_Pitch_clip_art" sketch:type="MSLayerGroup" transform="translate(233.000000, 116.000000)">
                <rect id="Rectangle-path" sketch:type="MSShapeGroup" x="0" y="0" width="1011" height="632"></rect>
                <path d="M506.118727,17.3150685 L44.5483476,17.3150685 L44.5483476,613.448141 L967.689106,613.448141 L967.689106,17.3150685 L506.118727,17.3150685 L506.118727,613.448141 L506.118727,17.3150685 Z" id="Shape" stroke="#FFFFFF" stroke-width="2" sketch:type="MSShapeGroup"></path>
                <ellipse id="Oval" stroke="#FFFFFF" stroke-width="2" fill-opacity="0" fill="#000000" sketch:type="MSShapeGroup" cx="506.118727" cy="315.381605" rx="80.4345165" ry="80.3913894"></ellipse>
                <ellipse id="Oval" stroke="#FFFFFF" fill="#FFFFFF" sketch:type="MSShapeGroup" cx="506.737454" cy="314.763209" rx="1.85618115" ry="1.85518591"></ellipse>
                <ellipse id="Oval" stroke="#FFFFFF" fill="#FFFFFF" sketch:type="MSShapeGroup" cx="139.213586" cy="314.763209" rx="1.85618115" ry="1.85518591"></ellipse>
                <ellipse id="Oval" stroke="#FFFFFF" fill="#FFFFFF" sketch:type="MSShapeGroup" cx="871.786414" cy="314.763209" rx="1.85618115" ry="1.85518591"></ellipse>
                <path d="M44.5483476,139.757339 L190.567931,139.757339 L190.567931,492.242661 L44.5483476,492.242661 L44.5483476,139.757339 Z" id="Shape" stroke="#FFFFFF" stroke-width="2" fill-opacity="0" fill="#000000" sketch:type="MSShapeGroup"></path>
                <path d="M967.689106,139.757339 L821.669523,139.757339 L821.669523,492.242661 L967.689106,492.242661 L967.689106,139.757339 Z" id="Shape" stroke="#FFFFFF" stroke-width="2" fill-opacity="0" fill="#000000" sketch:type="MSShapeGroup"></path>
                <path d="M190.567931,252.305284 C210.825458,267.507533 222.741738,291.327315 222.741738,316.618395 C222.741738,341.909475 210.825458,365.729258 190.567931,380.931507 L190.567931,252.305284 Z" id="Shape" stroke="#FFFFFF" stroke-width="2" sketch:type="MSShapeGroup"></path>
                <path d="M789.495716,250.305284 C809.753242,265.507533 821.669523,289.327315 821.669523,314.618395 C821.669523,339.909475 809.753242,363.729258 789.495716,378.931507 L789.495716,250.305284 Z" id="Shape-2" stroke="#FFFFFF" stroke-width="2" sketch:type="MSShapeGroup" transform="translate(805.582619, 314.618395) scale(-1, 1) translate(-805.582619, -314.618395) "></path>
                <path d="M44.5483476,27.2093933 C50.0157638,27.2093933 54.4479804,22.7795532 54.4479804,17.3150685 L44.5483476,17.3150685 L44.5483476,27.2093933 Z" id="Shape" stroke="#FFFFFF" stroke-width="2" fill-opacity="0" fill="#000000" sketch:type="MSShapeGroup"></path>
                <path d="M54.4479804,614.684932 C54.4479804,609.220447 50.0157638,604.790607 44.5483476,604.790607 L44.5483476,614.684932 L54.4479804,614.684932 Z" id="Shape" stroke="#FFFFFF" stroke-width="2" fill-opacity="0" fill="#000000" sketch:type="MSShapeGroup"></path>
                <path d="M968.926561,604.790607 C963.459144,604.790607 959.026928,609.220447 959.026928,614.684932 L968.926561,614.684932 L968.926561,604.790607 Z" id="Shape" stroke="#FFFFFF" stroke-width="2" fill-opacity="0" fill="#000000" sketch:type="MSShapeGroup"></path>
                <path d="M959.026928,17.3150685 C959.026928,22.7795532 963.459144,27.2093933 968.926561,27.2093933 L968.926561,17.3150685 L959.026928,17.3150685 Z" id="Shape" stroke="#FFFFFF" stroke-width="2" fill-opacity="0" fill="#000000" sketch:type="MSShapeGroup"></path>
            </g>
        </g>
    </g>
</svg>